# xmcd
#
# Track frame offsets:
#	150
#	15900
#	36973
#	51373
#	67892
#	83530
#	101075
#	116975
#	133100
#	150030
#	166080
#	185307
#	203538
#
# Disc length: 2894 seconds
#
# Revision: 0
# Processed by: cddbd v1.5.2PL0 Copyright (c) Steve Scherf et al.
# Submitted via: dBpowerAMP V4.0
#
DISCID=970b4c0d
DTITLE=Μπούγιο and Dirty Johnny - Blues και Ντέρτια
DYEAR=2014
DGENRE=Blues
TTITLE0=Χωρίς σκοπό
TTITLE1=Με τα χάλια μου
TTITLE2=Ίσως
TTITLE3=Λόγος
TTITLE4=Πριν κοιμηθείς
TTITLE5=Ξεχνιέμαι
TTITLE6=Στα νερά μου
TTITLE7=Ρέστα
TTITLE8=Ας με πειράζει
TTITLE9=Να 'σαι καλά
TTITLE10=Ζάλη
TTITLE11=Μπλουζ στο δρόμο
TTITLE12=Μπλουζ και ντέρτι
EXTD=Greek underground
EXTT0=
EXTT1=
EXTT2=
EXTT3=
EXTT4=
EXTT5=
EXTT6=
EXTT7=
EXTT8=
EXTT9=
EXTT10=
EXTT11=
EXTT12=
PLAYORDER=
